<?xml version="1.0"?>
<svg xmlns="http://www.w3.org/2000/svg" id="Capa_1" enable-background="new 0 0 512 512" height="512px" viewBox="0 0 512 512" width="512px"><g><path d="m512 151h-512v-120h512z" data-original="#000000" class="active-path" data-old_color="#000000" fill="#181B22"/><path d="m331 256c0 8.27-6.73 15-15 15h-120c-8.27 0-15-6.73-15-15s6.73-15 15-15h120c8.27 0 15 6.73 15 15z" data-original="#000000" class="active-path" data-old_color="#000000" fill="#181B22"/><path d="m31 181v300h450v-300zm285 120h-120c-24.81 0-45-20.19-45-45s20.19-45 45-45h120c24.81 0 45 20.19 45 45s-20.19 45-45 45z" data-original="#000000" class="active-path" data-old_color="#000000" fill="#181B22"/></g> </svg>
